<?xml version="1.0" encoding="UTF-8"?>
<svg width="356px" height="58px" viewBox="0 0 356 58" version="1.1" xmlns="http://www.w3.org/2000/svg" xmlns:xlink="http://www.w3.org/1999/xlink">
    <title>编组 3</title>
    <defs>
        <linearGradient x1="55.7633529%" y1="100%" x2="55.7633529%" y2="-22.4327297%" id="linearGradient-1">
            <stop stop-color="#5A44FF" offset="0%"></stop>
            <stop stop-color="#323CFE" offset="100%"></stop>
        </linearGradient>
        <linearGradient x1="55.7633529%" y1="100%" x2="55.7633529%" y2="-22.4327297%" id="linearGradient-2">
            <stop stop-color="#5A44FF" offset="0%"></stop>
            <stop stop-color="#323CFE" offset="100%"></stop>
        </linearGradient>
        <linearGradient x1="55.7633529%" y1="100%" x2="55.7633529%" y2="-22.4327297%" id="linearGradient-3">
            <stop stop-color="#5A44FF" offset="0%"></stop>
            <stop stop-color="#323CFE" offset="100%"></stop>
        </linearGradient>
        <linearGradient x1="55.7633529%" y1="100%" x2="55.7633529%" y2="-22.4327297%" id="linearGradient-4">
            <stop stop-color="#5A44FF" offset="0%"></stop>
            <stop stop-color="#323CFE" offset="100%"></stop>
        </linearGradient>
        <linearGradient x1="55.7633529%" y1="100%" x2="55.7633529%" y2="-22.4327297%" id="linearGradient-5">
            <stop stop-color="#5A44FF" offset="0%"></stop>
            <stop stop-color="#323CFE" offset="100%"></stop>
        </linearGradient>
        <linearGradient x1="55.7633529%" y1="100%" x2="55.7633529%" y2="-22.4327297%" id="linearGradient-6">
            <stop stop-color="#5A44FF" offset="0%"></stop>
            <stop stop-color="#323CFE" offset="100%"></stop>
        </linearGradient>
    </defs>
    <g id="页面-1" stroke="none" stroke-width="1" fill="none" fill-rule="evenodd">
        <g id="1.2每日小结" transform="translate(-62.000000, -842.000000)" fill-rule="nonzero">
            <g id="编组-3" transform="translate(62.000000, 842.000000)">
                <path d="M317.296528,57.9394572 L317.296528,22.9457203 L316.096465,22.9457203 L320.236681,10.6555324 L315.016409,10.6555324 L318.736603,0.423799582 L305.295902,0.423799582 L299.235587,19.5553236 L303.915831,19.5553236 L299.775615,31.4217119 L303.015784,31.4217119 L303.015784,57.9394572 L317.296528,57.9394572 Z M352.698372,5.69102296 L352.698372,1.63465553 L323.836868,1.63465553 L323.836868,5.69102296 L352.698372,5.69102296 Z M347.898122,57.9394572 L347.898122,23.8538622 L355.518519,23.8538622 L355.518519,19.7974948 L321.076724,19.7974948 L321.076724,23.8538622 L333.917393,23.8538622 L333.917393,53.9436326 L329.717175,53.9436326 L329.717175,57.9394572 L347.898122,57.9394572 Z" id="本月累计排行" fill="url(#linearGradient-1)"></path>
                <path d="M276.194387,0.302713987 L276.194387,58 L263.233712,58 L263.233712,46.7390397 L259.213502,46.7390397 L259.213502,42.6826722 L263.233712,42.6826722 L263.233712,30.3319415 L259.213502,30.3319415 L259.213502,26.2150313 L263.233712,26.2150313 L263.233712,12.5323591 L259.213502,12.5323591 L259.213502,8.35490605 L263.233712,8.35490605 L263.233712,0.302713987 L276.194387,0.302713987 Z M291.555187,0.302713987 L291.555187,8.35490605 L295.45539,8.35490605 L295.45539,12.5323591 L291.555187,12.5323591 L291.555187,26.2150313 L295.45539,26.2150313 L295.45539,30.3319415 L291.555187,30.3319415 L291.555187,42.6826722 L295.45539,42.6826722 L295.45539,46.7390397 L291.555187,46.7390397 L291.555187,58 L278.474505,58 L278.474505,0.302713987 L291.555187,0.302713987 Z M255.13329,0.423799582 L255.13329,11.6847599 L258.253452,11.6847599 L258.253452,15.8016701 L255.13329,15.8016701 L255.13329,29.605428 L258.253452,28.8789144 L258.253452,32.9958246 L255.13329,33.7223382 L255.13329,57.8183716 L239.652483,57.8183716 L239.652483,53.519833 L241.872599,53.519833 L241.872599,36.8705637 L238.092402,37.7787056 L238.092402,33.6617954 L241.872599,32.7536534 L241.872599,15.8016701 L238.092402,15.8016701 L238.092402,11.6847599 L241.872599,11.6847599 L241.872599,0.423799582 L255.13329,0.423799582 Z" id="形状结合" fill="url(#linearGradient-2)"></path>
                <path d="M194.110111,14.2881002 L194.347283,14.2947277 C195.28461,14.3477474 196.085598,14.7188855 196.750248,15.408142 C197.470286,16.1548365 197.830305,17.052888 197.830305,18.1022965 L197.830305,18.1022965 L197.830305,50.8559499 L202.030524,50.0688935 L202.030524,54.3674322 L182.289495,58 L181.569458,53.7620042 L184.149592,53.2776618 L184.149592,19.8580376 L184.14467,19.7040791 C184.095449,18.9591189 183.677068,18.5866388 182.889526,18.5866388 L182.889526,18.5866388 L179.289339,18.5866388 L179.289339,14.2881002 L194.110111,14.2881002 Z M225.551749,0 L225.551749,22.1586639 L236.292308,22.1586639 L236.292308,26.2150313 L225.551749,26.2150313 L225.551749,57.9394572 L211.271005,57.9394572 L211.271005,26.2150313 L199.990417,26.2150313 L199.990417,22.1586639 L211.271005,22.1586639 L211.271005,0 L225.551749,0 Z M194.650139,0.302713987 L195.43018,11.5636743 L183.969583,11.5636743 L183.069536,0.302713987 L194.650139,0.302713987 Z" id="形状结合" fill="url(#linearGradient-3)"></path>
                <path d="M169.32882,1.69519833 L169.557294,1.7018258 C170.461956,1.75484552 171.255844,2.12598362 171.938956,2.81524008 C172.622069,3.50449655 172.989898,4.32271992 173.042446,5.26991019 L173.049014,5.50939457 L173.049014,24.822547 L153.00797,24.822547 L143.767489,31.6033403 L148.507736,31.2400835 L152.767957,27.9707724 L167.108704,27.9707724 L148.027711,42.2588727 L158.76827,41.4718163 L156.908173,37.2943633 L169.32882,37.2943633 L173.709048,47.223382 L161.288401,47.223382 L160.268348,44.8622129 L155.88812,45.2254697 L155.88812,58 L135.787073,58 L135.787073,54.1858038 L139.507267,54.1858038 L139.507267,46.3757829 L119.646232,47.82881 L119.586229,44.256785 L125.16652,43.8329854 L137.887182,35.4780793 L121.086307,36.9311065 L120.846295,33.3590814 L124.20647,33.1169102 L134.947029,24.822547 L121.626335,24.822547 L121.626335,1.69519833 L169.32882,1.69519833 Z M135.487057,48.7974948 L133.026929,57.8789144 L119.826242,57.8789144 L122.406376,48.7974948 L135.487057,48.7974948 Z M171.908955,48.7974948 L174.429086,57.8789144 L161.228398,57.8789144 L158.76827,48.7974948 L171.908955,48.7974948 Z M139.807282,15.3173278 L135.307048,15.3173278 L135.307048,20.6450939 L139.807282,20.6450939 L139.807282,15.3173278 Z M159.368301,15.3173278 L154.868067,15.3173278 L154.868067,20.6450939 L159.368301,20.6450939 L159.368301,15.3173278 Z M139.807282,5.75156576 L135.307048,5.75156576 L135.307048,11.1398747 L139.807282,11.1398747 L139.807282,5.75156576 Z M158.108236,5.75156576 L154.868067,5.75156576 L154.868067,11.1398747 L159.368301,11.1398747 L159.368301,7.02296451 L159.363379,6.86900607 C159.314158,6.12404586 158.895777,5.75156576 158.108236,5.75156576 Z" id="形状结合" fill="url(#linearGradient-4)"></path>
                <path d="M34.8618159,0.24217119 L34.8618159,11.0793319 L54.6028442,11.0793319 L54.6028442,15.1356994 L49.6225848,15.1356994 L54.2428254,52.7327766 L40.5021097,52.7327766 L39.9620816,48.1920668 L34.8618159,48.1920668 L34.8618159,57.9394572 L19.7410283,57.9394572 L19.7410283,48.1920668 L14.4607532,48.1920668 L13.860722,52.7327766 L0.120006251,52.7327766 L4.98025942,15.1356994 L0,15.1356994 L0,11.0793319 L19.7410283,11.0793319 L19.7410283,0.24217119 L34.8618159,0.24217119 Z M19.7410283,15.1356994 L18.6009689,15.1356994 L14.9407782,44.1356994 L19.7410283,44.1356994 L19.7410283,15.1356994 Z M36.0018753,15.1356994 L34.8618159,15.1356994 L34.8618159,44.1356994 L39.4820566,44.1356994 L36.0018753,15.1356994 Z" id="形状结合" fill="url(#linearGradient-5)"></path>
                <path d="M108.965676,1.87682672 L109.194149,1.88345419 C110.098812,1.93647392 110.892699,2.30761201 111.575812,2.99686848 C112.31585,3.74356298 112.68587,4.64161447 112.68587,5.69102296 L112.68587,5.69102296 L112.68587,57.697286 L94.204907,57.697286 L94.204907,53.3382046 L96.9050477,53.3382046 L96.9050477,39.3528184 L77.94406,39.3528184 L77.94406,57.697286 L62.2232411,57.697286 L62.2232411,1.87682672 L108.965676,1.87682672 Z M96.9050477,23.308977 L77.94406,23.308977 L77.94406,35.2359081 L96.9050477,35.2359081 L96.9050477,23.308977 Z M95.644982,5.93319415 L77.94406,5.93319415 L77.94406,19.2526096 L96.9050477,19.2526096 L96.9050477,7.2045929 L96.9001255,7.05063446 C96.8509042,6.30567426 96.4325231,5.93319415 95.644982,5.93319415 L95.644982,5.93319415 Z" id="形状结合" fill="url(#linearGradient-6)"></path>
            </g>
        </g>
    </g>
</svg>