<?xml version="1.0" encoding="UTF-8"?>
<svg width="105px" height="18px" viewBox="0 0 105 18" version="1.1" xmlns="http://www.w3.org/2000/svg" xmlns:xlink="http://www.w3.org/1999/xlink">
    <title>TOP5</title>
    <g id="页面-1" stroke="none" stroke-width="1" fill="none" fill-rule="evenodd">
        <g id="1.2每日小结" transform="translate(-452.000000, -871.000000)" fill="#FFFFFF" fill-rule="nonzero">
            <path d="M462.43,888.2 L464.44,874.1 L470.5,874.1 L471.07,871.22 L452.65,871.22 L452.35,874.1 L458.68,874.1 L456.67,888.2 L462.43,888.2 Z M491.68,888.2 L493.69,873.23 C493.77,872.93 493.78,872.66 493.72,872.42 C493.66,872.18 493.545,871.97 493.375,871.79 C493.205,871.61 493,871.47 492.76,871.37 C492.52,871.27 492.26,871.22 491.98,871.22 L491.98,871.22 L475.84,871.22 L473.83,886.19 C473.75,886.47 473.74,886.735 473.8,886.985 C473.86,887.235 473.975,887.45 474.145,887.63 C474.315,887.81 474.52,887.95 474.76,888.05 C475,888.15 475.26,888.2 475.54,888.2 L475.54,888.2 L491.68,888.2 Z M486.22,885.32 L479.59,885.32 L481.03,874.1 L487.93,874.1 L486.22,885.32 Z M501.91,888.2 L502.78,882.44 L512.86,882.44 C513.3,882.44 513.755,882.25 514.225,881.87 C514.695,881.49 515.01,881.01 515.17,880.43 L515.17,880.43 L516.31,871.22 L497.59,871.22 L498.46,872.06 L496.45,888.2 L501.91,888.2 Z M509.41,879.56 L503.35,879.56 L503.95,874.1 L510.28,874.1 L509.41,879.56 Z M551.89,888.2 C552.47,888.2 552.98,888.005 553.42,887.615 C553.86,887.225 554.13,886.74 554.23,886.16 L554.23,886.16 L554.35,885.35 L555.46,877.37 L544.06,877.37 L544.57,873.95 L555.94,873.95 L556.33,871.19 L538.12,871.19 L539.11,872.21 L537.97,880.22 L549.37,880.22 L548.62,885.35 L538.39,885.35 L537.4,884.21 L536.86,888.2 L551.89,888.2 Z" id="TOP5"></path>
        </g>
    </g>
</svg>